<?xml version="1.0" encoding="UTF-8"?>
<svg id="Calque_1" data-name="Calque 1" xmlns="http://www.w3.org/2000/svg" viewBox="0 0 899.62 899.62">
  <defs>
    <style>
      .cls-1 {
        fill: #010101;
      }

      .cls-2 {
        fill: #1d1d1b;
      }
    </style>
  </defs>
  <path class="cls-2" d="M606.08,864.85h-312.54c-142.69,0-258.78-116.09-258.78-258.78v-312.53c0-142.69,116.08-258.78,258.78-258.78h312.54c142.69,0,258.78,116.09,258.78,258.78v312.53c0,142.69-116.08,258.78-258.78,258.78ZM293.54,41.29c-139.09,0-252.25,113.16-252.25,252.25v312.53c0,139.09,113.16,252.25,252.25,252.25h312.54c139.09,0,252.25-113.16,252.25-252.25v-312.53c0-139.09-113.16-252.25-252.25-252.25h-312.54Z"/>
  <g>
    <path class="cls-1" d="M540.33,216.44h-181.03c-41.66,0-75.56,33.9-75.56,75.56v315.63c0,41.66,33.9,75.55,75.56,75.55h181.03c41.66,0,75.55-33.9,75.55-75.55v-315.63c0-41.66-33.89-75.56-75.55-75.56ZM332.74,292c0-14.65,11.92-26.56,26.57-26.56h181.03c14.65,0,26.56,11.91,26.56,26.56v315.63c0,14.65-11.91,26.56-26.56,26.56h-181.03c-14.65,0-26.57-11.91-26.57-26.56v-315.63Z"/>
    <path class="cls-1" d="M472.06,607.97h-44.51c-13.53,0-24.5-10.97-24.5-24.5h0c0-13.53,10.97-24.5,24.5-24.5h44.51c13.53,0,24.5,10.97,24.5,24.5h0c0,13.53-10.97,24.5-24.5,24.5Z"/>
  </g>
</svg>