<?xml version="1.0" encoding="UTF-8"?>
<svg id="Calque_1" data-name="Calque 1" xmlns="http://www.w3.org/2000/svg" viewBox="0 0 899.62 899.62">
  <defs>
    <style>
      .cls-1 {
        fill: #1d1d1b;
      }
    </style>
  </defs>
  <path class="cls-1" d="M606.08,864.85h-312.54c-142.69,0-258.78-116.09-258.78-258.78v-312.53c0-142.69,116.08-258.78,258.78-258.78h312.54c142.69,0,258.78,116.09,258.78,258.78v312.53c0,142.69-116.08,258.78-258.78,258.78ZM293.54,41.29c-139.09,0-252.25,113.16-252.25,252.25v312.53c0,139.09,113.16,252.25,252.25,252.25h312.54c139.09,0,252.25-113.16,252.25-252.25v-312.53c0-139.09-113.16-252.25-252.25-252.25h-312.54Z"/>
  <g>
    <path class="cls-1" d="M441.86,211.23c-122.84,3.99-224.3,103.48-230.45,226.23-2.22,44.25,7.55,86.08,26.52,122.4l-26.67,119.43c-1.13,5.4,3.66,10.19,9.06,9.06l119.43-26.67h.08c36.07,18.84,77.47,28.6,121.39,26.57,122.56-5.67,222.37-106.37,227.11-228.97,5.37-138.85-107.81-252.56-246.48-248.06ZM449.81,639.13c-34.74,0-67.25-9.38-95.24-25.76-2.63-1.48-5.19-3.05-7.66-4.69l-76.31,20.33,20.33-76.3c-19.26-29.63-30.46-64.95-30.46-102.89,0-104.37,84.95-189.32,189.32-189.32s189.32,84.95,189.32,189.32-84.95,189.32-189.32,189.32Z"/>
    <path class="cls-1" d="M562.09,533.15c-3.3,4.95-6.77,9.57-12.3,15.1-12.13,12.13-28.97,18.24-46.05,16.51-30.62-3.14-74.11-20.05-111.5-57.36-37.39-37.39-54.3-80.88-57.36-111.5-1.73-17.08,4.37-33.92,16.51-46.05,5.53-5.53,10.15-9,15.1-12.38,9.16-6.19,21.62-2.06,25.09,8.34l12.54,37.63c3.47,10.32,1.9,16.84-2.56,21.21l-9.99,10.07c-4.95,4.95-5.78,12.63-1.98,18.57,5.53,8.67,15.93,22.53,35.07,41.68,19.15,19.15,33.01,29.55,41.68,35.07,5.94,3.8,13.62,2.97,18.57-1.98l10.07-9.99c4.37-4.46,10.89-6.02,21.21-2.56l37.63,12.54c10.4,3.47,14.53,15.93,8.25,25.09Z"/>
  </g>
</svg>