<?xml version="1.0" encoding="UTF-8"?>
<svg id="Calque_1" data-name="Calque 1" xmlns="http://www.w3.org/2000/svg" viewBox="0 0 899.62 899.62">
  <defs>
    <style>
      .cls-1 {
        fill: #1d1d1b;
      }
    </style>
  </defs>
  <path class="cls-1" d="M606.08,864.85h-312.54c-142.69,0-258.78-116.09-258.78-258.78v-312.53c0-142.69,116.08-258.78,258.78-258.78h312.54c142.69,0,258.78,116.09,258.78,258.78v312.53c0,142.69-116.08,258.78-258.78,258.78ZM293.54,41.29c-139.09,0-252.25,113.16-252.25,252.25v312.53c0,139.09,113.16,252.25,252.25,252.25h312.54c139.09,0,252.25-113.16,252.25-252.25v-312.53c0-139.09-113.16-252.25-252.25-252.25h-312.54Z"/>
  <g>
    <path d="M406.94,437.36l13.01-8.08c23.08-16.53,29.33-40.05,24.87-67.55-6.65-41.03-40.21-50.52-76.8-54.02l-147.79.03v283.63l144.22.02c39.12-3.26,80.35-16.84,91.8-58.64,10.92-39.88-7.06-85.07-49.3-95.39ZM283.25,355.9h72.84c13.07,0,26.43,11.42,28.69,24.24,4.08,23.25-6.42,39.15-29.89,42.36-23.8,1.32-47.78.27-71.64.6v-67.19ZM356.12,544.42l-72.87-.02v-79.68l72.87-.02c21.18,1.78,36.72,10.07,40.04,32.5,4.23,28.63-12.17,45.4-40.04,47.23Z"/>
    <rect x="514.56" y="324.98" width="125.46" height="27.36"/>
    <path d="M679.26,469.78c-2.42-48.69-36.19-90.76-85.99-95.96-89.54-9.34-139.74,75.57-110.07,155.27,19.96,53.62,81.11,73.86,133.5,57.09,31.61-10.12,50.17-33.5,60.19-64.37h-49.65c-11.3,24.35-40.14,31.29-64.65,24.81-24.02-6.35-32.1-28.14-33.17-50.97h149.84c-.31-8.59.42-17.28,0-25.86ZM623.08,461.15h-92.46c-.08-19.42,11.1-35.91,29.61-42.05,30.84-10.22,58.07,5.74,62.96,37.77.13.84,1.07,4.27-.11,4.27Z"/>
  </g>
</svg>