<?xml version="1.0" encoding="UTF-8"?>
<svg id="Calque_1" data-name="Calque 1" xmlns="http://www.w3.org/2000/svg" viewBox="0 0 1856.14 1856.14">
  <defs>
    <style>
      .cls-1 {
        fill: #2f9966;
      }

      .cls-2 {
        fill: #f0e518;
      }

      .cls-3 {
        fill: #9b3268;
      }

      .cls-4 {
        fill: #e41d20;
      }

      .cls-5 {
        fill: #41c0ef;
      }

      .cls-6 {
        fill: #f4981b;
      }
    </style>
  </defs>
  <polygon class="cls-3" points="1715.98 664.91 1718.78 729.31 1766.15 809.84 1757.02 1104.46 1663.78 1126.58 1610.8 1154.69 1362.72 1088.05 1401.71 737.93 1534.65 649.57 1547.59 561.26 1663.01 574.3 1715.98 664.91"/>
  <path class="cls-5" d="M317.38,1456.05c-61.39-221.91,173.78-266.73,173.78-266.73l134.7,128.79c-70.7,244.64-270.6,174.15-270.6,174.15l-37.88-36.21Z"/>
  <path class="cls-2" d="M391.22,359.24s-14.29,23.42,5.13,55.18c19.42,31.75,68.15,83.5,68.15,83.5l73.48-6.83,50.24-94.5s9.17-19.45-5.13-55.18c-14.3-35.73-73.69-98.83-73.69-98.83,0,0-36.67-25.41-61.96,12.62-25.29,38.03-56.21,104.04-56.21,104.04Z"/>
  <path class="cls-1" d="M95.43,868.65s19.3,55.14,96.69,99.6l20.79,24.73,63.25-12.11s60.87-32.55,80.7-56.96l26.76-27.46,2.09-42.23,14.35-16.22s-28.35-111.46-109.18-120.54l-36.32-1.8-.67,13.51s-81.03-22.63-155.36,76.98c0,0-16.94,37.08-3.09,62.5Z"/>
  <polygon class="cls-4" points="1182.63 1664.54 1208.63 1656.62 1237.7 1510.69 1231.64 1490.81 1191.7 1480.4 1207.62 1411.96 1195.29 1371.51 1159.5 1347.31 1146.85 1327.76 1116.26 1337.09 1087.07 1351 1067.33 1390.44 961.32 1558.15 995.58 1582.81 991 1622.65 1115.33 1685.05 1182.63 1664.54"/>
  <polygon class="cls-6" points="955.41 196.61 948.84 187.19 943.78 182.88 940.83 180.37 935.76 176.06 925.41 171.09 904.94 174.41 853.05 235.42 849.22 259.78 855.54 271.3 860.16 275.23 863.11 277.74 867.73 281.67 880.11 286.06 903.55 278.36 955.43 217.34 955.41 196.61"/>
</svg>