<?xml version="1.0" encoding="UTF-8"?>
<svg id="Calque_1" data-name="Calque 1" xmlns="http://www.w3.org/2000/svg" viewBox="0 0 1856.14 1856.14">
  <defs>
    <style>
      .cls-1 {
        fill: #fff;
      }

      .cls-2 {
        fill: #e41d20;
      }
    </style>
  </defs>
  <rect class="cls-2" x="0" y="0" width="1856.14" height="1856.14" rx="445.06" ry="445.06"/>
  <g>
    <path class="cls-1" d="M277.61,678.45h107.57l17.58,208.36c4.06,43.97,8.12,96.73,11.5,143.41h1.35c2.71-47.36,7.45-99.44,11.5-144.09l16.91-207.69h100.12l-77.79,502.63h-111.62l-77.12-502.63Z"/>
    <path class="cls-1" d="M558.36,678.45h106.88v500.6h-106.88v-500.6Z"/>
    <path class="cls-1" d="M701.11,678.45h106.88v411.99h83.21v88.62h-190.09v-500.6Z"/>
    <path class="cls-1" d="M912.17,678.45h106.88v500.6h-106.88v-500.6Z"/>
    <path class="cls-1" d="M1046.12,928.75c0-183.33,40.59-255.04,129.21-255.04s112.3,60.89,119.06,205.66l-98.09,4.05c0-94.71-4.73-111.62-20.97-111.62-20.97,0-21.64,41.94-21.64,156.95s-2.03,162.36,27.06,162.36c21.64,0,25.71-20.29,27.73-80.5h-32.47v-81.85h122.45v250.3h-57.5l-2.03-58.18h-.68c-6.76,33.82-36.53,61.56-79.83,61.56-82.53,0-112.3-70.36-112.3-253.68Z"/>
    <path class="cls-1" d="M1386.41,676.42h111.62l80.5,502.63h-107.56l-10.15-93.36h-46l-9.47,93.36h-100.12l81.18-502.63ZM1456.09,1014.66c-4.06-39.91-8.8-89.29-12.18-121.76-2.03-16.91-3.39-33.15-4.74-48.71h-1.35c-1.36,15.56-3.39,31.79-4.74,48.71-3.39,33.15-8.12,81.85-12.85,121.76h35.86Z"/>
  </g>
</svg>