<?xml version="1.0" encoding="UTF-8"?>
<svg id="Calque_1" data-name="Calque 1" xmlns="http://www.w3.org/2000/svg" viewBox="0 0 2927.1 1424.92">
  <defs>
    <style>
      .cls-1 {
        fill: #fff;
      }

      .cls-2 {
        fill: #e41d20;
      }
    </style>
  </defs>
  <rect class="cls-2" width="2927.1" height="1424.92"/>
  <g>
    <path class="cls-1" d="M304.62,274.47h188.73l30.85,365.58c7.13,77.15,14.25,169.73,20.18,251.63h2.37c4.75-83.09,13.07-174.48,20.18-252.82l29.68-364.4h175.67l-136.49,881.9h-195.85l-135.32-881.9Z"/>
    <path class="cls-1" d="M797.23,274.47h187.53v878.34h-187.53V274.47Z"/>
    <path class="cls-1" d="M1047.68,274.47h187.53v722.86h145.99v155.49h-333.52V274.47Z"/>
    <path class="cls-1" d="M1418.01,274.47h187.53v878.34h-187.53V274.47Z"/>
    <path class="cls-1" d="M1653.03,713.65c0-321.67,71.22-447.49,226.71-447.49s197.03,106.83,208.9,360.84l-172.11,7.11c0-166.17-8.3-195.85-36.79-195.85-36.79,0-37.98,73.59-37.98,275.38s-3.57,284.87,47.47,284.87c37.98,0,45.1-35.61,48.66-141.25h-56.97v-143.62h214.84v439.17h-100.89l-3.57-102.07h-1.19c-11.87,59.34-64.1,108.01-140.06,108.01-144.8,0-197.03-123.45-197.03-445.11Z"/>
    <path class="cls-1" d="M2250.09,270.92h195.85l141.25,881.9h-188.72l-17.81-163.8h-80.71l-16.62,163.8h-175.67l142.43-881.9ZM2372.35,864.38c-7.13-70.02-15.44-156.67-21.37-213.64-3.57-29.68-5.94-58.17-8.31-85.46h-2.37c-2.38,27.29-5.94,55.78-8.31,85.46-5.94,58.16-14.25,143.62-22.55,213.64h62.91Z"/>
  </g>
</svg>