<?xml version="1.0" encoding="UTF-8"?>
<svg id="Calque_1" data-name="Calque 1" xmlns="http://www.w3.org/2000/svg" viewBox="0 0 1857.83 412.27">
  <defs>
    <style>
      .cls-1 {
        fill: #2f9966;
      }

      .cls-2 {
        fill: #f0e518;
      }

      .cls-3 {
        fill: #9b3268;
      }

      .cls-4 {
        fill: #e41d20;
      }

      .cls-5 {
        fill: #41c0ef;
      }

      .cls-6 {
        fill: #f4981b;
      }
    </style>
  </defs>
  <polygon class="cls-3" points="133.36 140.33 160.75 140.33 195.81 121.71 320.69 131.02 328.36 171.01 339.31 194.01 306.45 298.08 158.56 275.08 123.51 217.02 86.26 209.9 93.93 161.15 133.36 140.33"/>
  <path class="cls-5" d="M521.89,109.66c126.69,75.59,37.63,200.47,37.63,200.47h-119.41c-75.59-144.6,48.2-200.47,48.2-200.47h33.58Z"/>
  <path class="cls-2" d="M721.66,198.4s-13.15,17.64,0,44.42c13.15,26.78,48.2,71.7,48.2,71.7h59.16l47.11-71.7s8.76-14.84,0-44.42c-8.76-29.58-51.49-84.35-51.49-84.35,0,0-27.39-23-50.39,5.48-23,28.48-52.58,78.87-52.58,78.87Z"/>
  <path class="cls-1" d="M1073.32,114.02s-35.05,14.25-61.35,65.74l-15.34,14.24,9.86,40.53s23,38.34,39.44,50.39l18.62,16.43h27.39l10.95,8.76s71.21-21.91,74.49-74.49v-23.56h-8.76s12.05-53.15-54.77-98.05c0,0-24.53-9.77-40.53,0Z"/>
  <polygon class="cls-4" points="1370.2 95.97 1351.58 95.97 1303.38 185.8 1303.38 200.04 1327.48 214.84 1303.38 256.51 1303.38 285.48 1322 308.49 1326.39 323.82 1348.3 323.82 1370.2 320.54 1391.02 298.63 1493.99 209.9 1476.47 186.89 1487.42 161.69 1418.41 95.97 1370.2 95.97"/>
  <polygon class="cls-6" points="1647.37 128.28 1647.37 278.36 1671.47 317.8 1694.48 326.56 1713.1 326.56 1713.1 93.23 1693.38 93.23 1672.57 98.71 1647.37 128.28"/>
  <polygon class="cls-6" points="1771.57 128.28 1771.57 278.36 1747.47 317.8 1724.47 326.56 1705.84 326.56 1705.84 93.23 1725.56 93.23 1746.38 98.71 1771.57 128.28"/>
</svg>