<?xml version="1.0" encoding="UTF-8"?>
<svg id="Calque_1" data-name="Calque 1" xmlns="http://www.w3.org/2000/svg" viewBox="0 0 899.62 899.62">
  <defs>
    <style>
      .cls-1 {
        fill: #1d1d1b;
      }
    </style>
  </defs>
  <path class="cls-1" d="M606.08,864.85h-312.54c-142.69,0-258.78-116.09-258.78-258.78v-312.53c0-142.69,116.08-258.78,258.78-258.78h312.54c142.69,0,258.78,116.09,258.78,258.78v312.53c0,142.69-116.08,258.78-258.78,258.78ZM293.54,41.29c-139.09,0-252.25,113.16-252.25,252.25v312.53c0,139.09,113.16,252.25,252.25,252.25h312.54c139.09,0,252.25-113.16,252.25-252.25v-312.53c0-139.09-113.16-252.25-252.25-252.25h-312.54Z"/>
  <path class="cls-1" d="M567.5,423.5l-5.65,45.38c-.95,7.59-7.37,13.29-14.99,13.29h-73.51v189.75c-7.76.7-15.61,1.05-23.55,1.05-17.75,0-35.09-1.78-51.85-5.15v-185.65h-56.54c-5.19,0-9.42-4.26-9.42-9.46v-56.79c0-5.2,4.24-9.46,9.42-9.46h56.54v-85.17c0-52.27,42.2-94.63,94.25-94.63h65.96c5.19,0,9.42,4.26,9.42,9.46v56.79c0,5.2-4.24,9.46-9.42,9.46h-47.12c-20.81,0-37.69,16.95-37.69,37.86v66.24h79.16c9.08,0,16.11,8,14.99,17.04Z"/>
</svg>